<mxfile host="app.diagrams.net" modified="2023-12-18T03:39:50.098Z" agent="Mozilla/5.0 (Macintosh; Intel Mac OS X 10_15_7) AppleWebKit/537.36 (KHTML, like Gecko) Chrome/119.0.0.0 Safari/537.36" etag="AsXmv-LRfG87IIIge-_U" version="22.1.11" type="github">
  <diagram name="Page-1" id="nFEkr7MXQn5QJwcauib3">
    <mxGraphModel dx="592" dy="1044" grid="1" gridSize="10" guides="1" tooltips="1" connect="1" arrows="1" fold="1" page="1" pageScale="1" pageWidth="850" pageHeight="1100" math="0" shadow="0">
      <root>
        <mxCell id="0" />
        <mxCell id="1" parent="0" />
        <mxCell id="Q-IYmzp6fRvz9Zu8DMFd-7" style="edgeStyle=orthogonalEdgeStyle;rounded=0;orthogonalLoop=1;jettySize=auto;html=1;exitX=1;exitY=0.5;exitDx=0;exitDy=0;entryX=0;entryY=0.5;entryDx=0;entryDy=0;" edge="1" parent="1" source="Q-IYmzp6fRvz9Zu8DMFd-3" target="Q-IYmzp6fRvz9Zu8DMFd-6">
          <mxGeometry relative="1" as="geometry" />
        </mxCell>
        <mxCell id="Q-IYmzp6fRvz9Zu8DMFd-8" value="Scan" style="edgeLabel;html=1;align=center;verticalAlign=middle;resizable=0;points=[];" vertex="1" connectable="0" parent="Q-IYmzp6fRvz9Zu8DMFd-7">
          <mxGeometry x="-0.1385" y="2" relative="1" as="geometry">
            <mxPoint x="4" y="-8" as="offset" />
          </mxGeometry>
        </mxCell>
        <mxCell id="Q-IYmzp6fRvz9Zu8DMFd-3" value="" style="rounded=1;whiteSpace=wrap;html=1;dashed=1;" vertex="1" parent="1">
          <mxGeometry x="100" y="190" width="180" height="320" as="geometry" />
        </mxCell>
        <mxCell id="Q-IYmzp6fRvz9Zu8DMFd-1" value="Store Config Service" style="rounded=0;whiteSpace=wrap;html=1;" vertex="1" parent="1">
          <mxGeometry x="130" y="220" width="120" height="60" as="geometry" />
        </mxCell>
        <mxCell id="Q-IYmzp6fRvz9Zu8DMFd-2" value="&lt;font style=&quot;font-size: 20px;&quot;&gt;&lt;b&gt;Full Scan Workflow&lt;/b&gt;&lt;/font&gt;" style="text;html=1;strokeColor=none;fillColor=none;align=center;verticalAlign=middle;whiteSpace=wrap;rounded=0;" vertex="1" parent="1">
          <mxGeometry x="350" y="80" width="190" height="30" as="geometry" />
        </mxCell>
        <mxCell id="Q-IYmzp6fRvz9Zu8DMFd-4" value="Facility Service" style="rounded=0;whiteSpace=wrap;html=1;" vertex="1" parent="1">
          <mxGeometry x="130" y="310" width="120" height="60" as="geometry" />
        </mxCell>
        <mxCell id="Q-IYmzp6fRvz9Zu8DMFd-5" value="Identity Service" style="rounded=0;whiteSpace=wrap;html=1;dashed=1;dashPattern=1 1;" vertex="1" parent="1">
          <mxGeometry x="130" y="410" width="120" height="60" as="geometry" />
        </mxCell>
        <mxCell id="Q-IYmzp6fRvz9Zu8DMFd-6" value="Workflow" style="rounded=0;whiteSpace=wrap;html=1;" vertex="1" parent="1">
          <mxGeometry x="385" y="320" width="120" height="60" as="geometry" />
        </mxCell>
        <mxCell id="Q-IYmzp6fRvz9Zu8DMFd-10" value="" style="shape=image;html=1;verticalAlign=top;verticalLabelPosition=bottom;labelBackgroundColor=#ffffff;imageAspect=0;aspect=fixed;image=https://cdn3.iconfinder.com/data/icons/UltimateGnome/128x128/status/gnome-fs-loading-icon.png" vertex="1" parent="1">
          <mxGeometry x="316" y="352" width="28" height="28" as="geometry" />
        </mxCell>
      </root>
    </mxGraphModel>
  </diagram>
</mxfile>
